inDegrees=yes
name=IK-live
DataType=double
version=3
OpenSimVersion=4.1
endheader
time	pelvis_tilt	pelvis_list	pelvis_rotation	pelvis_tx	pelvis_ty	pelvis_tz	hip_flexion_r	hip_adduction_r	hip_rotation_r	knee_angle_r	ankle_angle_r	subtalar_angle_r	mtp_angle_r	hip_flexion_l	hip_adduction_l	hip_rotation_l	knee_angle_l	ankle_angle_l	subtalar_angle_l	mtp_angle_l	lumbar_extension	lumbar_bending	lumbar_rotation	neck_flex	neck_latbend	neck_rot	arm_flex_r	arm_add_r	arm_rot_r	elbow_flex_r	pro_sup_r	wrist_flex_r	wrist_dev_r	arm_flex_l	arm_add_l	arm_rot_l	elbow_flex_l	pro_sup_l	wrist_flex_l	wrist_dev_l
21.8841247	1088.66057762682	18.61607040673781	-608.5907340546024	0.2341366603171506	0.04326292228651554	-1.326684523481465	-22.57117169827992	-1.591976316804377	-3.241458145969817	5.899560354604904	2.451982624139334	1.987972377786656	0	-24.74788768789517	-3.395140484746916	-11.58000132048591	9.793848132074926	-0.4439473045988533	4.250290820099795	0	-21.37711699760957	1.659277491615732	3.206407148933037	0	0	0	1.607304556967597	-15.17289662564885	32.25397818155622	15.87775219250467	27.39762926879941	0	1.126393303526821	6.624730903381375	-13.2659667212417	42.3362279695058	15.80897829720535	34.75876353856245	0	1.126393303526821
22.0510547	1088.815658947754	11.85100714999971	-605.7964201679952	0.2341366603171506	0.04326292228651554	-1.326684523481465	-22.57117169827992	-1.591976316804377	-3.241458145969817	5.899560354604904	2.451982624139334	1.987972377786656	0	-24.74788768789517	-3.395140484746916	-11.58000132048591	9.793848132074926	-0.4439473045988533	4.250290820099795	0	-21.37711699760957	1.659277491615732	3.206407148933037	0	0	0	1.608095993843614	-15.17289323615571	32.25301097498289	15.88324978080809	27.39969830909465	0	1.127262048633145	6.625453833158042	-13.26600072403691	42.33481833535595	15.81450215087893	34.75984661462515	0	1.127262048633145
22.2139299	1078.238944116548	9.323720407776374	-600.8747259325877	0.2341366603171506	0.04326292228651554	-1.326684523481465	-22.57117169827992	-1.591976316804377	-3.241458145969817	5.899560354604904	2.451982624139334	1.987972377786656	0	-24.74788768789517	-3.395140484746916	-11.58000132048591	9.793848132074926	-0.4439473045988533	4.250290820099795	0	-21.37711699760957	1.659277491615732	3.206407148933037	0	0	0	1.608673324625064	-15.17289079085348	32.25232213746559	15.88699493471165	27.40112537567778	0	1.127854845106407	6.625981926799822	-13.26602525458897	42.33381947747731	15.8182646074292	34.76059729543351	0	1.127854845106407
22.3668398	1055.904965187429	3.375810081998122	-594.3055289382962	0.2341366603171506	0.04326292228651554	-1.326684523481465	-22.57117169827992	-1.591976316804377	-3.241458145969817	5.899560354604904	2.451982624139334	1.987972377786656	0	-24.74788768789517	-3.395140484746916	-11.58000132048591	9.793848132074926	-0.4439473045988533	4.250290820099795	0	-21.37711699760957	1.659277491615732	3.206407148933037	0	0	0	1.60921883317568	-15.1728884791679	32.25167055610867	15.89054436696064	27.40247723136761	0	1.128416669423353	6.626480880774746	-13.26604844475047	42.33287442560116	15.82183045861048	34.76130826217121	0	1.128416669423353
22.5337408	1065.684274251468	-12.25527173114046	-579.5478153812475	0.2341366603171506	0.04326292228651554	-1.326684523481465	-22.57117169827992	-1.591976316804377	-3.241458145969817	5.899560354604904	2.451982624139334	1.987972377786656	0	-24.74788768789517	-3.395140484746916	-11.58000132048591	9.793848132074926	-0.4439473045988533	4.250290820099795	0	-21.37711699760957	1.659277491615732	3.206407148933037	0	0	0	1.610205039665255	-15.17288424190761	32.25045703831468	15.89751735888717	27.40509495934971	0	1.129518561799555	6.627381352362463	-13.26609095233776	42.33110336021591	15.82883697427376	34.76267697011234	0	1.129518561799555
22.7006218	1074.845052115081	-24.57010609335219	-574.1410510816668	0.2341366603171506	0.04326292228651554	-1.326684523481465	-22.57117169827992	-1.591976316804377	-3.241458145969817	5.899560354604904	2.451982624139334	1.987972377786656	0	-24.74788768789517	-3.395140484746916	-11.58000132048591	9.793848132074926	-0.4439473045988533	4.250290820099795	0	-21.37711699760957	1.659277491615732	3.206407148933037	0	0	0	1.611133559215775	-15.17288026079437	32.24931966039282	15.90399320636481	27.4075329249914	0	1.130542411432293	6.628229374957249	-13.2661308902064	42.32944502860802	15.83534371281861	34.76395299414084	0	1.130542411432293
22.8675318	1068.953055626727	-71.93675507943242	-600.1988634411304	0.2341366603171506	0.04326292228651554	-1.326684523481465	-22.57117169827992	-1.591976316804377	-3.241458145969817	5.899560354604904	2.451982624139334	1.987972377786656	0	-24.74788768789517	-3.395140484746916	-11.58000132048591	9.793848132074926	-0.4439473045988533	4.250290820099795	0	-21.37711699760957	1.659277491615732	3.206407148933037	0	0	0	1.627892135258203	-15.17280726829894	32.22809883362002	16.03110029902268	27.45484020349992	0	1.150641276561315	6.643504302585572	-13.26686315069787	42.29829985319557	15.96307444328016	34.78858100170784	0	1.150641276561315
